<svg width="4" height="4" viewBox="0 0 4 4" fill="none" xmlns="http://www.w3.org/2000/svg">
<g opacity="0.8" clip-path="url(#clip0_291_183)">
<path d="M1.28059 3.47827C1.7614 3.47827 2.15118 3.86759 2.15118 4.34784C2.15118 4.82809 1.7614 5.21741 1.28059 5.21741C0.799779 5.21741 0.410004 4.82809 0.410004 4.34784C0.410004 3.86759 0.799779 3.47827 1.28059 3.47827Z" fill="#8FC15A"/>
<path d="M1.28059 1.52207e-05C1.7614 1.51997e-05 2.15118 0.38932 2.15118 0.869568C2.15118 1.34982 1.7614 1.73914 1.28059 1.73914C0.799779 1.73914 0.410003 1.34982 0.410003 0.869568C0.410003 0.38932 0.799779 1.52418e-05 1.28059 1.52207e-05Z" fill="#8FC15A"/>
<path d="M4.76294 3.47827C5.24375 3.47827 5.63353 3.86759 5.63353 4.34784C5.63353 4.82809 5.24375 5.21741 4.76294 5.21741C4.28213 5.21741 3.89235 4.82809 3.89235 4.34784C3.89235 3.86759 4.28213 3.47827 4.76294 3.47827Z" fill="#8FC15A"/>
<path d="M4.76294 1.50685e-05C5.24375 1.50475e-05 5.63353 0.38932 5.63353 0.869568C5.63353 1.34982 5.24375 1.73914 4.76294 1.73914C4.28213 1.73914 3.89235 1.34982 3.89235 0.869568C3.89235 0.38932 4.28213 1.50895e-05 4.76294 1.50685e-05Z" fill="#8FC15A"/>
</g>
<defs>
<clipPath id="clip0_291_183">
<rect width="3.47" height="3.47" fill="white" transform="translate(0.410004)"/>
</clipPath>
</defs>
</svg>
