<svg width="5" height="4" viewBox="0 0 5 4" fill="none" xmlns="http://www.w3.org/2000/svg">
<g clip-path="url(#clip0_291_171)">
<path d="M1.69059 3.47827C2.17141 3.47827 2.56118 3.86759 2.56118 4.34784C2.56118 4.82809 2.17141 5.21741 1.69059 5.21741C1.20978 5.21741 0.820007 4.82809 0.820007 4.34784C0.820007 3.86759 1.20978 3.47827 1.69059 3.47827Z" fill="white"/>
<path d="M1.69059 1.52207e-05C2.17141 1.51997e-05 2.56118 0.38932 2.56118 0.869568C2.56118 1.34982 2.17141 1.73914 1.69059 1.73914C1.20978 1.73914 0.820007 1.34982 0.820007 0.869568C0.820007 0.38932 1.20978 1.52418e-05 1.69059 1.52207e-05Z" fill="white"/>
<path d="M5.17294 3.47827C5.65376 3.47827 6.04353 3.86759 6.04353 4.34784C6.04353 4.82809 5.65376 5.21741 5.17294 5.21741C4.69213 5.21741 4.30236 4.82809 4.30236 4.34784C4.30236 3.86759 4.69213 3.47827 5.17294 3.47827Z" fill="white"/>
<path d="M5.17294 1.50685e-05C5.65376 1.50475e-05 6.04353 0.38932 6.04353 0.869568C6.04353 1.34982 5.65376 1.73914 5.17294 1.73914C4.69213 1.73914 4.30236 1.34982 4.30236 0.869568C4.30236 0.38932 4.69213 1.50895e-05 5.17294 1.50685e-05Z" fill="white"/>
</g>
<defs>
<clipPath id="clip0_291_171">
<rect width="3.47" height="3.47" fill="white" transform="translate(0.820007)"/>
</clipPath>
</defs>
</svg>
