<svg width="4" height="4" viewBox="0 0 4 4" fill="none" xmlns="http://www.w3.org/2000/svg">
<g opacity="0.3" clip-path="url(#clip0_304_173)">
<path d="M1.22059 3.47827C1.70141 3.47827 2.09118 3.86759 2.09118 4.34784C2.09118 4.82809 1.70141 5.21741 1.22059 5.21741C0.739781 5.21741 0.350006 4.82809 0.350006 4.34784C0.350006 3.86759 0.739781 3.47827 1.22059 3.47827Z" fill="#8FC15A"/>
<path d="M1.22059 1.52207e-05C1.70141 1.51997e-05 2.09118 0.38932 2.09118 0.869568C2.09118 1.34982 1.70141 1.73914 1.22059 1.73914C0.739781 1.73914 0.350006 1.34982 0.350006 0.869568C0.350006 0.38932 0.739781 1.52418e-05 1.22059 1.52207e-05Z" fill="#8FC15A"/>
<path d="M4.70294 3.47827C5.18375 3.47827 5.57353 3.86759 5.57353 4.34784C5.57353 4.82809 5.18375 5.21741 4.70294 5.21741C4.22213 5.21741 3.83236 4.82809 3.83236 4.34784C3.83236 3.86759 4.22213 3.47827 4.70294 3.47827Z" fill="#8FC15A"/>
<path d="M4.70294 1.50685e-05C5.18375 1.50475e-05 5.57353 0.38932 5.57353 0.869568C5.57353 1.34982 5.18375 1.73914 4.70294 1.73914C4.22213 1.73914 3.83236 1.34982 3.83236 0.869568C3.83236 0.38932 4.22213 1.50895e-05 4.70294 1.50685e-05Z" fill="#8FC15A"/>
</g>
<defs>
<clipPath id="clip0_304_173">
<rect width="3.47" height="3.47" fill="white" transform="translate(0.350006)"/>
</clipPath>
</defs>
</svg>
