<svg width="5" height="4" viewBox="0 0 5 4" fill="none" xmlns="http://www.w3.org/2000/svg">
<g opacity="0.7" clip-path="url(#clip0_304_175)">
<path d="M1.75059 3.47827C2.2314 3.47827 2.62118 3.86759 2.62118 4.34784C2.62118 4.82809 2.2314 5.21741 1.75059 5.21741C1.26978 5.21741 0.880005 4.82809 0.880005 4.34784C0.880005 3.86759 1.26978 3.47827 1.75059 3.47827Z" fill="#8FC15A"/>
<path d="M1.75059 1.52207e-05C2.2314 1.51997e-05 2.62118 0.38932 2.62118 0.869568C2.62118 1.34982 2.2314 1.73914 1.75059 1.73914C1.26978 1.73914 0.880005 1.34982 0.880005 0.869568C0.880005 0.38932 1.26978 1.52418e-05 1.75059 1.52207e-05Z" fill="#8FC15A"/>
<path d="M5.23294 3.47827C5.71375 3.47827 6.10353 3.86759 6.10353 4.34784C6.10353 4.82809 5.71375 5.21741 5.23294 5.21741C4.75213 5.21741 4.36235 4.82809 4.36235 4.34784C4.36235 3.86759 4.75213 3.47827 5.23294 3.47827Z" fill="#8FC15A"/>
<path d="M5.23294 1.50685e-05C5.71375 1.50475e-05 6.10353 0.38932 6.10353 0.869568C6.10353 1.34982 5.71375 1.73914 5.23294 1.73914C4.75213 1.73914 4.36235 1.34982 4.36235 0.869568C4.36235 0.38932 4.75213 1.50895e-05 5.23294 1.50685e-05Z" fill="#8FC15A"/>
</g>
<defs>
<clipPath id="clip0_304_175">
<rect width="3.47" height="3.47" fill="white" transform="translate(0.880005)"/>
</clipPath>
</defs>
</svg>
