<svg width="5" height="4" viewBox="0 0 5 4" fill="none" xmlns="http://www.w3.org/2000/svg">
<g clip-path="url(#clip0_286_164)">
<path d="M1.81059 3.47827C2.2914 3.47827 2.68118 3.86759 2.68118 4.34784C2.68118 4.82809 2.2914 5.21741 1.81059 5.21741C1.32978 5.21741 0.940002 4.82809 0.940002 4.34784C0.940002 3.86759 1.32978 3.47827 1.81059 3.47827Z" fill="#8FC15A"/>
<path d="M1.81059 1.52207e-05C2.2914 1.51997e-05 2.68118 0.38932 2.68118 0.869568C2.68118 1.34982 2.2914 1.73914 1.81059 1.73914C1.32978 1.73914 0.940002 1.34982 0.940002 0.869568C0.940002 0.38932 1.32978 1.52418e-05 1.81059 1.52207e-05Z" fill="#8FC15A"/>
<path d="M5.29294 3.47827C5.77375 3.47827 6.16353 3.86759 6.16353 4.34784C6.16353 4.82809 5.77375 5.21741 5.29294 5.21741C4.81213 5.21741 4.42235 4.82809 4.42235 4.34784C4.42235 3.86759 4.81213 3.47827 5.29294 3.47827Z" fill="#8FC15A"/>
<path d="M5.29294 1.50685e-05C5.77375 1.50475e-05 6.16353 0.38932 6.16353 0.869568C6.16353 1.34982 5.77375 1.73914 5.29294 1.73914C4.81213 1.73914 4.42235 1.34982 4.42235 0.869568C4.42235 0.38932 4.81213 1.50895e-05 5.29294 1.50685e-05Z" fill="#8FC15A"/>
</g>
<defs>
<clipPath id="clip0_286_164">
<rect width="3.47" height="3.47" fill="white" transform="translate(0.940002)"/>
</clipPath>
</defs>
</svg>
