<svg width="4" height="4" viewBox="0 0 4 4" fill="none" xmlns="http://www.w3.org/2000/svg">
<g opacity="0.3" clip-path="url(#clip0_266_163)">
<path d="M0.870587 3.47827C1.3514 3.47827 1.74117 3.86759 1.74117 4.34784C1.74117 4.82809 1.3514 5.21741 0.870587 5.21741C0.389775 5.21741 -1.70177e-08 4.82809 -3.801e-08 4.34784C-5.90023e-08 3.86759 0.389775 3.47827 0.870587 3.47827Z" fill="white"/>
<path d="M0.870587 1.52207e-05C1.3514 1.51997e-05 1.74117 0.38932 1.74117 0.869568C1.74117 1.34982 1.3514 1.73914 0.870587 1.73914C0.389775 1.73914 -1.69058e-07 1.34982 -1.9005e-07 0.869568C-2.11042e-07 0.38932 0.389775 1.52418e-05 0.870587 1.52207e-05Z" fill="white"/>
<path d="M4.35294 3.47827C4.83375 3.47827 5.22352 3.86759 5.22352 4.34784C5.22352 4.82809 4.83375 5.21741 4.35294 5.21741C3.87212 5.21741 3.48235 4.82809 3.48235 4.34784C3.48235 3.86759 3.87212 3.47827 4.35294 3.47827Z" fill="white"/>
<path d="M4.35294 1.50685e-05C4.83375 1.50475e-05 5.22352 0.38932 5.22352 0.869568C5.22352 1.34982 4.83375 1.73914 4.35294 1.73914C3.87212 1.73914 3.48235 1.34982 3.48235 0.869568C3.48235 0.38932 3.87212 1.50895e-05 4.35294 1.50685e-05Z" fill="white"/>
</g>
<defs>
<clipPath id="clip0_266_163">
<rect width="3.47" height="3.47" fill="white"/>
</clipPath>
</defs>
</svg>
