<svg width="4" height="4" viewBox="0 0 4 4" fill="none" xmlns="http://www.w3.org/2000/svg">
<g opacity="0.4" clip-path="url(#clip0_304_171)">
<path d="M1.34059 3.47827C1.8214 3.47827 2.21118 3.86759 2.21118 4.34784C2.21118 4.82809 1.8214 5.21741 1.34059 5.21741C0.859776 5.21741 0.470001 4.82809 0.470001 4.34784C0.470001 3.86759 0.859776 3.47827 1.34059 3.47827Z" fill="white"/>
<path d="M1.34059 1.52207e-05C1.8214 1.51997e-05 2.21118 0.38932 2.21118 0.869568C2.21118 1.34982 1.8214 1.73914 1.34059 1.73914C0.859776 1.73914 0.470001 1.34982 0.470001 0.869568C0.470001 0.38932 0.859776 1.52418e-05 1.34059 1.52207e-05Z" fill="white"/>
<path d="M4.82294 3.47827C5.30375 3.47827 5.69353 3.86759 5.69353 4.34784C5.69353 4.82809 5.30375 5.21741 4.82294 5.21741C4.34213 5.21741 3.95235 4.82809 3.95235 4.34784C3.95235 3.86759 4.34213 3.47827 4.82294 3.47827Z" fill="white"/>
<path d="M4.82294 1.50685e-05C5.30375 1.50475e-05 5.69353 0.38932 5.69353 0.869568C5.69353 1.34982 5.30375 1.73914 4.82294 1.73914C4.34213 1.73914 3.95235 1.34982 3.95235 0.869568C3.95235 0.38932 4.34213 1.50895e-05 4.82294 1.50685e-05Z" fill="white"/>
</g>
<defs>
<clipPath id="clip0_304_171">
<rect width="3.47" height="3.47" fill="white" transform="translate(0.470001)"/>
</clipPath>
</defs>
</svg>
