<svg width="4" height="4" viewBox="0 0 4 4" fill="none" xmlns="http://www.w3.org/2000/svg">
<g clip-path="url(#clip0_780_183)">
<path d="M1.5706 3.71326C2.05141 3.71326 2.44119 4.10258 2.44119 4.58282C2.44119 5.06307 2.05141 5.45239 1.5706 5.45239C1.08979 5.45239 0.700012 5.06307 0.700012 4.58282C0.700012 4.10258 1.08979 3.71326 1.5706 3.71326Z" fill="white"/>
<path d="M1.5706 0.235001C2.05141 0.235001 2.44119 0.624306 2.44119 1.10455C2.44119 1.5848 2.05141 1.97412 1.5706 1.97412C1.08979 1.97412 0.700012 1.5848 0.700012 1.10455C0.700012 0.624306 1.08979 0.235001 1.5706 0.235001Z" fill="white"/>
<path d="M5.05295 3.71326C5.53376 3.71326 5.92354 4.10258 5.92354 4.58282C5.92354 5.06307 5.53376 5.45239 5.05295 5.45239C4.57214 5.45239 4.18236 5.06307 4.18236 4.58282C4.18236 4.10258 4.57214 3.71326 5.05295 3.71326Z" fill="white"/>
<path d="M5.05295 0.235C5.53376 0.235 5.92354 0.624305 5.92354 1.10455C5.92354 1.5848 5.53376 1.97412 5.05295 1.97412C4.57214 1.97412 4.18236 1.5848 4.18236 1.10455C4.18236 0.624305 4.57214 0.235 5.05295 0.235Z" fill="white"/>
</g>
<defs>
<clipPath id="clip0_780_183">
<rect width="3" height="3" fill="white" transform="translate(0.700012 0.234985)"/>
</clipPath>
</defs>
</svg>
