<svg width="1024" height="1024" viewBox="0 0 1024 1024" fill="none" xmlns="http://www.w3.org/2000/svg">
<path fill-rule="evenodd" clip-rule="evenodd" d="M514.441 74.6668C607.91 74.6663 681.327 74.6659 738.645 82.3719C797.38 90.2691 843.985 106.783 880.602 143.399C917.218 180.015 933.73 226.619 941.628 285.356C949.333 342.674 949.333 416.09 949.333 509.56V514.441C949.333 607.91 949.333 681.327 941.628 738.645C933.73 797.38 917.218 843.985 880.602 880.602C843.985 917.218 797.38 933.73 738.645 941.628C681.327 949.333 607.91 949.333 514.441 949.333H509.56C416.09 949.333 342.674 949.333 285.356 941.628C226.619 933.73 180.015 917.218 143.399 880.602C106.783 843.985 90.2691 797.38 82.3719 738.645C74.6659 681.327 74.6663 607.91 74.6668 514.441V509.56C74.6663 416.09 74.6659 342.675 82.3719 285.356C90.2691 226.619 106.783 180.015 143.399 143.399C180.015 106.783 226.619 90.2691 285.356 82.3719C342.675 74.6659 416.09 74.6663 509.56 74.6668H514.441ZM498.428 449.165C508.966 450.581 523.55 454.374 535.923 466.748C548.297 479.121 552.09 493.7 553.506 504.243C554.68 512.973 554.671 523.128 554.667 531.652V533.333V704C554.667 727.565 535.565 746.667 512 746.667C488.435 746.667 469.333 727.565 469.333 704V533.333C445.769 533.333 426.667 514.232 426.667 490.667C426.667 467.102 445.769 448 469.333 448H471.014C479.544 447.996 489.694 447.987 498.428 449.165ZM511.804 277.333C488.346 277.333 469.329 296.436 469.329 320C469.329 343.564 488.346 362.667 511.804 362.667H512.188C535.646 362.667 554.662 343.564 554.662 320C554.662 296.436 535.646 277.333 512.188 277.333H511.804Z" fill="black"/>
</svg>
