<svg width="123" height="28" viewBox="0 0 123 28" fill="none" xmlns="http://www.w3.org/2000/svg">
<path fill-rule="evenodd" clip-rule="evenodd" d="M4.05431 0.47688C4.69015 -0.15896 5.72105 -0.15896 6.35689 0.47688L8.85159 2.97158C12.1061 1.4527 15.8941 1.45191 19.1489 2.97119L21.6431 0.476967C22.279 -0.158873 23.3099 -0.158873 23.9457 0.476967C24.5816 1.11281 24.5816 2.14371 23.9457 2.77955L21.9436 4.78172C22.1694 4.97675 22.3898 5.18147 22.6042 5.39586C22.8186 5.61024 23.0233 5.83063 23.2183 6.05649L25.2205 4.05428C25.8564 3.41844 26.8873 3.41844 27.5231 4.05428C28.1589 4.69012 28.1589 5.72102 27.5231 6.35686L25.0288 8.85119C26.5479 12.1058 26.5479 15.8941 25.0288 19.1488L27.5231 21.6431C28.159 22.2789 28.159 23.3098 27.5231 23.9456C26.8873 24.5815 25.8564 24.5815 25.2205 23.9456L23.2184 21.9435C23.0233 22.1694 22.8186 22.3898 22.6042 22.6042C22.3898 22.8186 22.1694 23.0233 21.9436 23.2183L23.9457 25.2205C24.5816 25.8563 24.5816 26.8872 23.9457 27.523C23.3099 28.1589 22.279 28.1589 21.6432 27.523L19.149 25.0289C15.8941 26.5482 12.1061 26.5474 8.85153 25.0285L6.3569 27.5231C5.72106 28.159 4.69016 28.159 4.05432 27.5231C3.41848 26.8873 3.41848 25.8564 4.05432 25.2205L7.33359 21.9413C7.34349 21.9314 7.35348 21.9216 7.36357 21.912C7.87808 21.3619 8.72404 21.227 9.39433 21.6324C12.8217 23.7049 17.3442 23.2591 20.3016 20.3016C23.7819 16.8214 23.7819 11.1787 20.3016 7.69844C17.3442 4.74103 12.8217 4.2952 9.39433 6.36773C8.72373 6.77324 7.87729 6.63806 7.36284 6.08728C7.353 6.07791 7.34325 6.0684 7.33358 6.05874L4.05431 2.77946C3.41847 2.14362 3.41847 1.11272 4.05431 0.47688ZM0.47688 4.05429C1.11272 3.41845 2.14362 3.41845 2.77946 4.05429L6.05873 7.33356C6.06869 7.34351 6.07848 7.35356 6.08812 7.3637C6.63816 7.87823 6.77299 8.72413 6.36769 9.39437C4.66169 12.2156 4.66169 15.7845 6.36769 18.6057C6.77306 19.2761 6.63811 20.1222 6.0878 20.6367C6.07828 20.6467 6.0686 20.6566 6.05877 20.6664L2.7795 23.9457C2.14366 24.5816 1.11276 24.5816 0.476922 23.9457C-0.158919 23.3099 -0.158918 22.279 0.476922 21.6431L2.97152 19.1485C1.45195 15.8932 1.45196 12.1069 2.97153 8.85152L0.47688 6.35687C-0.15896 5.72103 -0.15896 4.69013 0.47688 4.05429Z" fill="#8FC15A"/>
<path d="M15.7085 15.7062C14.7649 16.6498 13.2351 16.6498 12.2916 15.7062C11.3481 14.7627 11.3481 13.2329 12.2916 12.2894C13.2351 11.3458 14.7649 11.3458 15.7085 12.2894C16.652 13.2329 16.652 14.7627 15.7085 15.7062Z" fill="#8FC15A"/>
<path d="M115.877 21.65C114.437 21.65 113.137 21.33 111.977 20.69C110.837 20.03 109.927 19.13 109.247 17.99C108.587 16.85 108.257 15.57 108.257 14.15C108.257 12.73 108.587 11.46 109.247 10.34C109.907 9.20002 110.797 8.30002 111.917 7.64002C113.057 6.98002 114.317 6.65002 115.697 6.65002C117.037 6.65002 118.217 6.96002 119.237 7.58002C120.277 8.20002 121.087 9.05002 121.667 10.13C122.267 11.21 122.567 12.44 122.567 13.82C122.567 14.06 122.547 14.31 122.507 14.57C122.487 14.81 122.447 15.08 122.387 15.38H110.567V12.68H120.677L119.447 13.76C119.407 12.88 119.237 12.14 118.937 11.54C118.637 10.94 118.207 10.48 117.647 10.16C117.107 9.84002 116.437 9.68003 115.637 9.68003C114.797 9.68003 114.067 9.86002 113.447 10.22C112.827 10.58 112.347 11.09 112.007 11.75C111.667 12.39 111.497 13.16 111.497 14.06C111.497 14.96 111.677 15.75 112.037 16.43C112.397 17.11 112.907 17.64 113.567 18.02C114.227 18.38 114.987 18.56 115.847 18.56C116.587 18.56 117.267 18.43 117.887 18.17C118.527 17.91 119.067 17.53 119.507 17.03L121.607 19.16C120.907 19.98 120.057 20.6 119.057 21.02C118.057 21.44 116.997 21.65 115.877 21.65Z" fill="#1A3D2F"/>
<path d="M99.8521 21.65C98.4121 21.65 97.1121 21.33 95.9521 20.69C94.8121 20.03 93.9021 19.13 93.2221 17.99C92.5621 16.85 92.2321 15.57 92.2321 14.15C92.2321 12.73 92.5621 11.46 93.2221 10.34C93.8821 9.20002 94.7721 8.30002 95.8921 7.64002C97.0321 6.98002 98.2921 6.65002 99.6721 6.65002C101.012 6.65002 102.192 6.96002 103.212 7.58002C104.252 8.20002 105.062 9.05002 105.642 10.13C106.242 11.21 106.542 12.44 106.542 13.82C106.542 14.06 106.522 14.31 106.482 14.57C106.462 14.81 106.422 15.08 106.362 15.38H94.5421V12.68H104.652L103.422 13.76C103.382 12.88 103.212 12.14 102.912 11.54C102.612 10.94 102.182 10.48 101.622 10.16C101.082 9.84002 100.412 9.68003 99.6121 9.68003C98.7721 9.68003 98.0421 9.86002 97.4221 10.22C96.8021 10.58 96.3221 11.09 95.9821 11.75C95.6421 12.39 95.4721 13.16 95.4721 14.06C95.4721 14.96 95.6521 15.75 96.0121 16.43C96.3721 17.11 96.8821 17.64 97.5421 18.02C98.2021 18.38 98.9621 18.56 99.8221 18.56C100.562 18.56 101.242 18.43 101.862 18.17C102.502 17.91 103.042 17.53 103.482 17.03L105.582 19.16C104.882 19.98 104.032 20.6 103.032 21.02C102.032 21.44 100.972 21.65 99.8521 21.65Z" fill="#1A3D2F"/>
<path d="M81.3848 21.35V6.95002H84.6848V21.35H81.3848ZM84.6848 13.34L83.5448 12.77C83.5448 10.95 83.9448 9.48002 84.7448 8.36002C85.5648 7.22002 86.7948 6.65002 88.4348 6.65002C89.1548 6.65002 89.8048 6.78003 90.3848 7.04002C90.9648 7.30002 91.5048 7.72002 92.0048 8.30002L89.8448 10.52C89.5848 10.24 89.2948 10.04 88.9748 9.92002C88.6548 9.80002 88.2848 9.74002 87.8648 9.74002C86.9448 9.74002 86.1848 10.03 85.5848 10.61C84.9848 11.19 84.6848 12.1 84.6848 13.34Z" fill="#1A3D2F"/>
<path d="M72.2369 21.35V6.94995H75.5369V21.35H72.2369ZM68.7869 9.94995V6.94995H78.9869V9.94995H68.7869Z" fill="#1A3D2F"/>
<path d="M61.0923 21.65C59.6523 21.65 58.3523 21.33 57.1923 20.69C56.0523 20.03 55.1423 19.13 54.4623 17.99C53.8023 16.85 53.4723 15.57 53.4723 14.15C53.4723 12.73 53.8023 11.46 54.4623 10.34C55.1223 9.20002 56.0123 8.30002 57.1323 7.64002C58.2723 6.98002 59.5323 6.65002 60.9123 6.65002C62.2523 6.65002 63.4323 6.96002 64.4523 7.58002C65.4923 8.20002 66.3023 9.05002 66.8823 10.13C67.4823 11.21 67.7823 12.44 67.7823 13.82C67.7823 14.06 67.7623 14.31 67.7223 14.57C67.7023 14.81 67.6623 15.08 67.6023 15.38H55.7823V12.68H65.8923L64.6623 13.76C64.6223 12.88 64.4523 12.14 64.1523 11.54C63.8523 10.94 63.4223 10.48 62.8623 10.16C62.3223 9.84002 61.6523 9.68003 60.8523 9.68003C60.0123 9.68003 59.2823 9.86002 58.6623 10.22C58.0423 10.58 57.5623 11.09 57.2223 11.75C56.8823 12.39 56.7123 13.16 56.7123 14.06C56.7123 14.96 56.8923 15.75 57.2523 16.43C57.6123 17.11 58.1223 17.64 58.7823 18.02C59.4423 18.38 60.2023 18.56 61.0623 18.56C61.8023 18.56 62.4823 18.43 63.1023 18.17C63.7423 17.91 64.2823 17.53 64.7223 17.03L66.8223 19.16C66.1223 19.98 65.2723 20.6 64.2723 21.02C63.2723 21.44 62.2123 21.65 61.0923 21.65Z" fill="#1A3D2F"/>
<path d="M44.71 21.65C43.61 21.65 42.63 21.42 41.77 20.96C40.91 20.48 40.23 19.83 39.73 19.01C39.25 18.19 39.01 17.26 39.01 16.22V12.08C39.01 11.04 39.26 10.11 39.76 9.29003C40.26 8.47003 40.94 7.83002 41.8 7.37002C42.66 6.89002 43.63 6.65002 44.71 6.65002C46.01 6.65002 47.18 6.99003 48.22 7.67002C49.28 8.33003 50.11 9.23002 50.71 10.37C51.33 11.49 51.64 12.76 51.64 14.18C51.64 15.58 51.33 16.85 50.71 17.99C50.11 19.11 49.28 20 48.22 20.66C47.18 21.32 46.01 21.65 44.71 21.65ZM37 25.35V6.95002H40.3V10.82L39.73 14.33L40.3 17.81V25.35H37ZM44.17 18.53C44.97 18.53 45.67 18.35 46.27 17.99C46.89 17.61 47.37 17.09 47.71 16.43C48.07 15.77 48.25 15.01 48.25 14.15C48.25 13.29 48.07 12.53 47.71 11.87C47.37 11.21 46.89 10.7 46.27 10.34C45.67 9.96003 44.97 9.77003 44.17 9.77003C43.37 9.77003 42.66 9.96003 42.04 10.34C41.42 10.7 40.94 11.21 40.6 11.87C40.26 12.53 40.09 13.29 40.09 14.15C40.09 15.01 40.26 15.77 40.6 16.43C40.94 17.09 41.42 17.61 42.04 17.99C42.66 18.35 43.37 18.53 44.17 18.53Z" fill="#1A3D2F"/>
</svg>
