<svg width="123" height="29" viewBox="0 0 123 29" fill="none" xmlns="http://www.w3.org/2000/svg">
<path fill-rule="evenodd" clip-rule="evenodd" d="M4.05431 1.31477C4.69015 0.678931 5.72105 0.678931 6.35689 1.31477L8.85159 3.80947C12.1061 2.29059 15.8941 2.2898 19.1489 3.80908L21.6432 1.31486C22.279 0.679017 23.3099 0.679017 23.9457 1.31486C24.5816 1.9507 24.5816 2.9816 23.9457 3.61744L21.9436 5.61961C22.1694 5.81465 22.3898 6.01936 22.6042 6.23375C22.8186 6.44813 23.0233 6.66852 23.2183 6.89438L25.2205 4.89217C25.8564 4.25633 26.8873 4.25633 27.5231 4.89217C28.1589 5.52801 28.1589 6.55891 27.5231 7.19475L25.0288 9.68908C26.5479 12.9437 26.5479 16.732 25.0288 19.9867L27.5231 22.4809C28.159 23.1168 28.159 24.1477 27.5231 24.7835C26.8873 25.4194 25.8564 25.4194 25.2205 24.7835L23.2184 22.7814C23.0233 23.0073 22.8186 23.2277 22.6042 23.4421C22.3898 23.6565 22.1694 23.8612 21.9436 24.0562L23.9457 26.0584C24.5816 26.6942 24.5816 27.7251 23.9457 28.3609C23.3099 28.9968 22.279 28.9968 21.6432 28.3609L19.149 25.8668C15.8941 27.3861 12.1061 27.3853 8.85153 25.8664L6.3569 28.361C5.72106 28.9969 4.69016 28.9969 4.05432 28.361C3.41848 27.7252 3.41848 26.6943 4.05432 26.0584L7.33359 22.7792C7.34349 22.7693 7.35348 22.7595 7.36357 22.7499C7.87808 22.1998 8.72404 22.0649 9.39433 22.4703C12.8217 24.5428 17.3442 24.0969 20.3016 21.1395C23.7819 17.6593 23.7819 12.0166 20.3016 8.53633C17.3442 5.57892 12.8217 5.13309 9.39433 7.20562C8.72373 7.61113 7.87729 7.47595 7.36284 6.92517C7.353 6.9158 7.34325 6.90629 7.33358 6.89663L4.05431 3.61735C3.41847 2.98151 3.41847 1.95061 4.05431 1.31477ZM0.47688 4.89218C1.11272 4.25634 2.14362 4.25634 2.77946 4.89218L6.05873 8.17145C6.06869 8.1814 6.07848 8.19145 6.08812 8.20159C6.63816 8.71612 6.77298 9.56202 6.36769 10.2323C4.66169 13.0535 4.66169 16.6224 6.36769 19.4436C6.77306 20.114 6.63811 20.9601 6.0878 21.4746C6.07828 21.4846 6.0686 21.4945 6.05877 21.5043L2.7795 24.7836C2.14366 25.4194 1.11276 25.4194 0.476922 24.7836C-0.158919 24.1478 -0.158918 23.1169 0.476922 22.481L2.97152 19.9864C1.45195 16.7311 1.45196 12.9448 2.97153 9.68941L0.47688 7.19476C-0.15896 6.55892 -0.15896 5.52802 0.47688 4.89218Z" fill="#8FC15A"/>
<path d="M15.7085 16.5441C14.7649 17.4877 13.2351 17.4877 12.2916 16.5441C11.3481 15.6006 11.3481 14.0708 12.2916 13.1272C13.2351 12.1837 14.7649 12.1837 15.7085 13.1272C16.652 14.0708 16.652 15.6006 15.7085 16.5441Z" fill="#8FC15A"/>
<path d="M115.877 22.8379C114.437 22.8379 113.137 22.5179 111.977 21.8779C110.837 21.2179 109.927 20.3179 109.247 19.1779C108.587 18.0379 108.257 16.7579 108.257 15.3379C108.257 13.9179 108.587 12.6479 109.247 11.5279C109.907 10.3879 110.797 9.48789 111.917 8.82789C113.057 8.16789 114.317 7.83789 115.697 7.83789C117.037 7.83789 118.217 8.14789 119.237 8.76789C120.277 9.38789 121.087 10.2379 121.667 11.3179C122.267 12.3979 122.567 13.6279 122.567 15.0079C122.567 15.2479 122.547 15.4979 122.507 15.7579C122.487 15.9979 122.447 16.2679 122.387 16.5679H110.567V13.8679H120.677L119.447 14.9479C119.407 14.0679 119.237 13.3279 118.937 12.7279C118.637 12.1279 118.207 11.6679 117.647 11.3479C117.107 11.0279 116.437 10.8679 115.637 10.8679C114.797 10.8679 114.067 11.0479 113.447 11.4079C112.827 11.7679 112.347 12.2779 112.007 12.9379C111.667 13.5779 111.497 14.3479 111.497 15.2479C111.497 16.1479 111.677 16.9379 112.037 17.6179C112.397 18.2979 112.907 18.8279 113.567 19.2079C114.227 19.5679 114.987 19.7479 115.847 19.7479C116.587 19.7479 117.267 19.6179 117.887 19.3579C118.527 19.0979 119.067 18.7179 119.507 18.2179L121.607 20.3479C120.907 21.1679 120.057 21.7879 119.057 22.2079C118.057 22.6279 116.997 22.8379 115.877 22.8379Z" fill="white"/>
<path d="M99.8521 22.8379C98.4121 22.8379 97.1121 22.5179 95.9521 21.8779C94.8121 21.2179 93.9021 20.3179 93.2221 19.1779C92.5621 18.0379 92.2321 16.7579 92.2321 15.3379C92.2321 13.9179 92.5621 12.6479 93.2221 11.5279C93.8821 10.3879 94.7721 9.48789 95.8921 8.82789C97.0321 8.16789 98.2921 7.83789 99.6721 7.83789C101.012 7.83789 102.192 8.14789 103.212 8.76789C104.252 9.38789 105.062 10.2379 105.642 11.3179C106.242 12.3979 106.542 13.6279 106.542 15.0079C106.542 15.2479 106.522 15.4979 106.482 15.7579C106.462 15.9979 106.422 16.2679 106.362 16.5679H94.5421V13.8679H104.652L103.422 14.9479C103.382 14.0679 103.212 13.3279 102.912 12.7279C102.612 12.1279 102.182 11.6679 101.622 11.3479C101.082 11.0279 100.412 10.8679 99.6121 10.8679C98.7721 10.8679 98.0421 11.0479 97.4221 11.4079C96.8021 11.7679 96.3221 12.2779 95.9821 12.9379C95.6421 13.5779 95.4721 14.3479 95.4721 15.2479C95.4721 16.1479 95.6521 16.9379 96.0121 17.6179C96.3721 18.2979 96.8821 18.8279 97.5421 19.2079C98.2021 19.5679 98.9621 19.7479 99.8221 19.7479C100.562 19.7479 101.242 19.6179 101.862 19.3579C102.502 19.0979 103.042 18.7179 103.482 18.2179L105.582 20.3479C104.882 21.1679 104.032 21.7879 103.032 22.2079C102.032 22.6279 100.972 22.8379 99.8521 22.8379Z" fill="white"/>
<path d="M81.3848 22.5379V8.13789H84.6848V22.5379H81.3848ZM84.6848 14.5279L83.5448 13.9579C83.5448 12.1379 83.9448 10.6679 84.7448 9.54789C85.5648 8.40789 86.7948 7.83789 88.4348 7.83789C89.1548 7.83789 89.8048 7.96789 90.3848 8.22789C90.9648 8.48789 91.5048 8.90789 92.0048 9.48789L89.8448 11.7079C89.5848 11.4279 89.2948 11.2279 88.9748 11.1079C88.6548 10.9879 88.2848 10.9279 87.8648 10.9279C86.9448 10.9279 86.1848 11.2179 85.5848 11.7979C84.9848 12.3779 84.6848 13.2879 84.6848 14.5279Z" fill="white"/>
<path d="M72.2369 22.5377V8.1377H75.5369V22.5377H72.2369ZM68.7869 11.1377V8.1377H78.9869V11.1377H68.7869Z" fill="white"/>
<path d="M61.0923 22.8379C59.6523 22.8379 58.3523 22.5179 57.1923 21.8779C56.0523 21.2179 55.1423 20.3179 54.4623 19.1779C53.8023 18.0379 53.4723 16.7579 53.4723 15.3379C53.4723 13.9179 53.8023 12.6479 54.4623 11.5279C55.1223 10.3879 56.0123 9.48789 57.1323 8.82789C58.2723 8.16789 59.5323 7.83789 60.9123 7.83789C62.2523 7.83789 63.4323 8.14789 64.4523 8.76789C65.4923 9.38789 66.3023 10.2379 66.8823 11.3179C67.4823 12.3979 67.7823 13.6279 67.7823 15.0079C67.7823 15.2479 67.7623 15.4979 67.7223 15.7579C67.7023 15.9979 67.6623 16.2679 67.6023 16.5679H55.7823V13.8679H65.8923L64.6623 14.9479C64.6223 14.0679 64.4523 13.3279 64.1523 12.7279C63.8523 12.1279 63.4223 11.6679 62.8623 11.3479C62.3223 11.0279 61.6523 10.8679 60.8523 10.8679C60.0123 10.8679 59.2823 11.0479 58.6623 11.4079C58.0423 11.7679 57.5623 12.2779 57.2223 12.9379C56.8823 13.5779 56.7123 14.3479 56.7123 15.2479C56.7123 16.1479 56.8923 16.9379 57.2523 17.6179C57.6123 18.2979 58.1223 18.8279 58.7823 19.2079C59.4423 19.5679 60.2023 19.7479 61.0623 19.7479C61.8023 19.7479 62.4823 19.6179 63.1023 19.3579C63.7423 19.0979 64.2823 18.7179 64.7223 18.2179L66.8223 20.3479C66.1223 21.1679 65.2723 21.7879 64.2723 22.2079C63.2723 22.6279 62.2123 22.8379 61.0923 22.8379Z" fill="white"/>
<path d="M44.71 22.8379C43.61 22.8379 42.63 22.6079 41.77 22.1479C40.91 21.6679 40.23 21.0179 39.73 20.1979C39.25 19.3779 39.01 18.4479 39.01 17.4079V13.2679C39.01 12.2279 39.26 11.2979 39.76 10.4779C40.26 9.65789 40.94 9.01789 41.8 8.55789C42.66 8.07789 43.63 7.83789 44.71 7.83789C46.01 7.83789 47.18 8.17789 48.22 8.85789C49.28 9.51789 50.11 10.4179 50.71 11.5579C51.33 12.6779 51.64 13.9479 51.64 15.3679C51.64 16.7679 51.33 18.0379 50.71 19.1779C50.11 20.2979 49.28 21.1879 48.22 21.8479C47.18 22.5079 46.01 22.8379 44.71 22.8379ZM37 26.5379V8.13789H40.3V12.0079L39.73 15.5179L40.3 18.9979V26.5379H37ZM44.17 19.7179C44.97 19.7179 45.67 19.5379 46.27 19.1779C46.89 18.7979 47.37 18.2779 47.71 17.6179C48.07 16.9579 48.25 16.1979 48.25 15.3379C48.25 14.4779 48.07 13.7179 47.71 13.0579C47.37 12.3979 46.89 11.8879 46.27 11.5279C45.67 11.1479 44.97 10.9579 44.17 10.9579C43.37 10.9579 42.66 11.1479 42.04 11.5279C41.42 11.8879 40.94 12.3979 40.6 13.0579C40.26 13.7179 40.09 14.4779 40.09 15.3379C40.09 16.1979 40.26 16.9579 40.6 17.6179C40.94 18.2779 41.42 18.7979 42.04 19.1779C42.66 19.5379 43.37 19.7179 44.17 19.7179Z" fill="white"/>
</svg>
